<svg xmlns="http://www.w3.org/2000/svg" xmlns:xlink="http://www.w3.org/1999/xlink" viewBox="0 0 636.78 337"><defs><style>.cls-1{fill:none;}.cls-2{fill:#59ccd2;}.cls-3{clip-path:url(#clip-path);}.cls-4{fill:#3fa4a4;}.cls-5{fill:#8dfbab;}.cls-6{fill:url(#linear-gradient);}.cls-7{fill:url(#linear-gradient-2);}.cls-8{fill:url(#linear-gradient-3);}.cls-9{fill:url(#linear-gradient-4);}.cls-10{fill:url(#linear-gradient-5);}.cls-11{fill:url(#linear-gradient-6);}.cls-12{fill:url(#linear-gradient-7);}.cls-13{fill:url(#linear-gradient-8);}.cls-14{fill:url(#linear-gradient-9);}.cls-15{fill:url(#linear-gradient-10);}.cls-16{fill:url(#linear-gradient-11);}.cls-17{fill:url(#linear-gradient-12);}.cls-18{fill:url(#linear-gradient-13);}.cls-19{fill:url(#linear-gradient-14);}.cls-20{fill:url(#linear-gradient-15);}.cls-21{fill:url(#linear-gradient-16);}.cls-22{fill:url(#linear-gradient-17);}.cls-23{fill:url(#linear-gradient-18);}.cls-24{fill:url(#linear-gradient-19);}.cls-25{fill:url(#linear-gradient-20);}.cls-26{fill:url(#linear-gradient-21);}.cls-27{fill:url(#linear-gradient-22);}.cls-28{fill:url(#linear-gradient-23);}.cls-29{fill:url(#linear-gradient-24);}.cls-30{fill:url(#linear-gradient-25);}.cls-31{fill:url(#linear-gradient-26);}.cls-32{fill:url(#linear-gradient-27);}.cls-33{fill:url(#linear-gradient-28);}.cls-34{fill:url(#linear-gradient-29);}.cls-35{fill:url(#linear-gradient-30);}.cls-36{fill:url(#linear-gradient-31);}.cls-37{fill:url(#linear-gradient-32);}.cls-38{fill:url(#linear-gradient-33);}.cls-39{fill:url(#linear-gradient-34);}.cls-40{fill:url(#linear-gradient-35);}.cls-41{fill:url(#linear-gradient-36);}.cls-42{fill:url(#linear-gradient-37);}.cls-43{fill:url(#linear-gradient-38);}.cls-44{fill:url(#linear-gradient-39);}.cls-45{fill:url(#linear-gradient-40);}.cls-46{fill:url(#linear-gradient-41);}.cls-47{fill:url(#linear-gradient-42);}.cls-48{fill:url(#linear-gradient-43);}.cls-49{fill:url(#linear-gradient-44);}.cls-50{fill:url(#linear-gradient-45);}.cls-51{fill:url(#linear-gradient-46);}.cls-52{fill:url(#linear-gradient-47);}.cls-53{fill:url(#linear-gradient-48);}.cls-54{fill:url(#linear-gradient-49);}.cls-55{fill:url(#linear-gradient-50);}.cls-56{fill:url(#linear-gradient-51);}.cls-57{fill:url(#linear-gradient-52);}.cls-58{fill:url(#linear-gradient-53);}.cls-59{fill:url(#linear-gradient-54);}.cls-60{fill:url(#linear-gradient-55);}.cls-61{fill:url(#linear-gradient-56);}.cls-62{fill:url(#linear-gradient-57);}.cls-63{fill:url(#linear-gradient-58);}.cls-64{fill:url(#linear-gradient-59);}.cls-65{fill:url(#linear-gradient-60);}.cls-66{fill:url(#linear-gradient-61);}.cls-67{fill:url(#linear-gradient-62);}.cls-68{fill:url(#linear-gradient-63);}.cls-69{fill:url(#linear-gradient-64);}.cls-70{fill:url(#linear-gradient-65);}.cls-71{fill:url(#linear-gradient-66);}.cls-72{fill:url(#linear-gradient-67);}.cls-73{fill:url(#linear-gradient-68);}.cls-74{fill:url(#linear-gradient-69);}.cls-75{fill:url(#linear-gradient-70);}.cls-76{fill:url(#linear-gradient-71);}.cls-77{fill:url(#linear-gradient-72);}.cls-78{fill:url(#linear-gradient-73);}.cls-79{fill:url(#linear-gradient-74);}.cls-80{fill:url(#linear-gradient-75);}.cls-81{fill:url(#linear-gradient-76);}.cls-82{fill:url(#linear-gradient-77);}.cls-83{fill:url(#linear-gradient-78);}</style><clipPath id="clip-path" transform="translate(-3.06 1)"><path class="cls-1" d="M603.5,133.38a1374.45,1374.45,0,0,0-230.71-12.49c-4.19.12-8.65.35-12.08,2.76s-5,6.22-7.59,9.34c-12.92,15.8-38.93,6.58-58,13.82-6.86,2.61-12.91,7.44-20.14,8.66-20.29,3.44-34-21.61-54-26.79-13.17-3.43-26.72,2.35-39.68,6.51s-28.72,6.18-38.82-2.94c-3.15-2.84-5.48-6.58-9-8.89-5.41-3.51-12.41-3-18.83-2.31l-65,6.74c-12,1.24-24.83,2.87-33.69,11C7.7,146.36,4.71,158,2.93,169a230.7,230.7,0,0,0,5.36,97.9c3.44,12.43,8.21,25,17.48,34,7.78,7.52,18,11.83,28,16l75.5,31.3c45,18.66,90.16,37.36,136.85,51.39a724,724,0,0,0,141.92,27.58c26,2.39,52.56,3.34,77.93-2.87,13.85-3.38,27.55-9.12,37.58-19.26,8.42-8.5,13.74-19.53,18.71-30.42q21-45.93,37.58-93.72c2.61-7.53,5.27-15.31,10.63-21.2,4.82-5.31,11.42-8.62,16.87-13.28,17.73-15.17,20.24-41.21,21.44-64.52.54-10.41,1-21.12-2.42-31s-11.88-18.68-22.27-19.36"/></clipPath><linearGradient id="linear-gradient" x1="-1488.61" y1="-625.97" x2="-1488.19" y2="-626.4" gradientTransform="matrix(15.56, 3.72, 4.66, -19.45, 26349.27, -6435.32)" gradientUnits="userSpaceOnUse"><stop offset="0" stop-color="#1d86b3"/><stop offset="1" stop-color="#217ea4"/></linearGradient><linearGradient id="linear-gradient-2" x1="-1541.09" y1="-716.86" x2="-1540.67" y2="-717.28" gradientTransform="matrix(27.23, 6.52, 3.49, -14.59, 44732.29, -221.67)" gradientUnits="userSpaceOnUse"><stop offset="0" stop-color="#011c35"/><stop offset="1" stop-color="#011b37"/></linearGradient><linearGradient id="linear-gradient-3" x1="-1538.43" y1="-625.88" x2="-1538.01" y2="-626.3" gradientTransform="matrix(26.26, 6.28, 4.66, -19.45, 43576.6, -2312.36)" gradientUnits="userSpaceOnUse"><stop offset="0" stop-color="#267297"/><stop offset="1" stop-color="#2e7a9d"/></linearGradient><linearGradient id="linear-gradient-4" x1="766.52" y1="593.77" x2="808.21" y2="552.08" gradientTransform="translate(-371.06 -524.43) rotate(10.6)" gradientUnits="userSpaceOnUse"><stop offset="0" stop-color="#54f6fc"/><stop offset="1" stop-color="#39dafb"/></linearGradient><linearGradient id="linear-gradient-5" x1="792.73" y1="611.92" x2="835.82" y2="568.84" gradientTransform="translate(-371.06 -524.43) rotate(10.6)" gradientUnits="userSpaceOnUse"><stop offset="0" stop-color="#83fffc"/><stop offset="1" stop-color="#3deffb"/></linearGradient><linearGradient id="linear-gradient-6" x1="-1561.41" y1="-500.5" x2="-1560.99" y2="-500.92" gradientTransform="matrix(37.93, 9.08, 8.61, -35.98, 63805.47, -3635.37)" gradientUnits="userSpaceOnUse"><stop offset="0" stop-color="#399abc"/><stop offset="1" stop-color="#329cc0"/></linearGradient><linearGradient id="linear-gradient-7" x1="-1586.29" y1="-456.32" x2="-1585.8" y2="-456.82" gradientTransform="matrix(73.91, 17.69, 12.34, -51.54, 123152.91, 4736.08)" gradientUnits="userSpaceOnUse"><stop offset="0" stop-color="#238eb6"/><stop offset="1" stop-color="#2195bd"/></linearGradient><linearGradient id="linear-gradient-8" x1="-1577.81" y1="-529.55" x2="-1577.38" y2="-529.97" gradientTransform="matrix(57.38, 13.73, 7.22, -30.15, 94600.58, 5881.34)" gradientUnits="userSpaceOnUse"><stop offset="0" stop-color="#2082a5"/><stop offset="1" stop-color="#297c97"/></linearGradient><linearGradient id="linear-gradient-9" x1="900.46" y1="650.28" x2="836.38" y2="685.35" gradientTransform="translate(-462.4 -653.53) rotate(13.46)" gradientUnits="userSpaceOnUse"><stop offset="0" stop-color="#033453"/><stop offset="1" stop-color="#32809a"/></linearGradient><linearGradient id="linear-gradient-10" x1="1206.26" y1="565.28" x2="1158.95" y2="661.11" gradientTransform="translate(-732.28 -785.66) rotate(19.45)" gradientUnits="userSpaceOnUse"><stop offset="0" stop-color="#084563"/><stop offset="1" stop-color="#51a7c1"/></linearGradient><linearGradient id="linear-gradient-11" x1="890.33" y1="667.58" x2="940.75" y2="713.96" gradientTransform="translate(-462.4 -653.53) rotate(13.46)" gradientUnits="userSpaceOnUse"><stop offset="0" stop-color="#144b6b"/><stop offset="1" stop-color="#02243d"/></linearGradient><linearGradient id="linear-gradient-12" x1="1027.19" y1="765.35" x2="1047.81" y2="744.73" gradientTransform="translate(-462.4 -653.53) rotate(13.46)" xlink:href="#linear-gradient-4"/><linearGradient id="linear-gradient-13" x1="-1591.55" y1="-456.54" x2="-1591.26" y2="-456.83" gradientTransform="matrix(92.39, 22.11, 12.34, -51.54, 152965.24, 11871.42)" gradientUnits="userSpaceOnUse"><stop offset="0" stop-color="#1ea6d6"/><stop offset="1" stop-color="#2c82ad"/></linearGradient><linearGradient id="linear-gradient-14" x1="-1570.23" y1="-458.39" x2="-1569.92" y2="-458.7" gradientTransform="matrix(44.74, 10.71, 12.1, -50.57, 76107.33, -6158.63)" xlink:href="#linear-gradient-4"/><linearGradient id="linear-gradient-15" x1="934.97" y1="712.43" x2="985.24" y2="662.16" gradientTransform="translate(-462.4 -653.53) rotate(13.46)" gradientUnits="userSpaceOnUse"><stop offset="0" stop-color="#45d7fb"/><stop offset="1" stop-color="#43c3f0"/></linearGradient><linearGradient id="linear-gradient-16" x1="982.38" y1="673.8" x2="950.45" y2="688.2" gradientTransform="translate(-462.4 -653.53) rotate(13.46)" gradientUnits="userSpaceOnUse"><stop offset="0" stop-color="#10749d"/><stop offset="1" stop-color="#011e3e"/></linearGradient><linearGradient id="linear-gradient-17" x1="994.35" y1="737.22" x2="1017.71" y2="710.35" gradientTransform="translate(-462.4 -653.53) rotate(13.46)" xlink:href="#linear-gradient-4"/><linearGradient id="linear-gradient-18" x1="839.84" y1="637.82" x2="865.82" y2="611.84" gradientTransform="translate(-371.06 -524.43) rotate(10.6)" gradientUnits="userSpaceOnUse"><stop offset="0" stop-color="#011e36"/><stop offset="1" stop-color="#11405f"/></linearGradient><linearGradient id="linear-gradient-19" x1="554.64" y1="483.87" x2="639.97" y2="398.54" gradientTransform="translate(-170.62 -237.27) rotate(4.8)" gradientUnits="userSpaceOnUse"><stop offset="0" stop-color="#022742"/><stop offset="1" stop-color="#022c48"/></linearGradient><linearGradient id="linear-gradient-20" x1="619.21" y1="365.8" x2="625.06" y2="403.57" gradientTransform="translate(-170.62 -237.27) rotate(4.8)" gradientUnits="userSpaceOnUse"><stop offset="0" stop-color="#31ecfb"/><stop offset="1" stop-color="#34b4de"/></linearGradient><linearGradient id="linear-gradient-21" x1="601.31" y1="484.62" x2="711.52" y2="374.41" gradientTransform="translate(-170.62 -237.27) rotate(4.8)" gradientUnits="userSpaceOnUse"><stop offset="0" stop-color="#033350"/><stop offset="1" stop-color="#053f61"/></linearGradient><linearGradient id="linear-gradient-22" x1="638.96" y1="461.89" x2="721.37" y2="379.49" gradientTransform="translate(-170.62 -237.27) rotate(4.8)" gradientUnits="userSpaceOnUse"><stop offset="0" stop-color="#011f34"/><stop offset="1" stop-color="#085072"/></linearGradient><linearGradient id="linear-gradient-23" x1="599.43" y1="387.66" x2="698.52" y2="401.92" xlink:href="#linear-gradient-20"/><linearGradient id="linear-gradient-24" x1="634.2" y1="422.31" x2="751.65" y2="304.87" xlink:href="#linear-gradient-20"/><linearGradient id="linear-gradient-25" x1="736.53" y1="402.14" x2="698.84" y2="358.74" gradientTransform="translate(-170.62 -237.27) rotate(4.8)" xlink:href="#linear-gradient-16"/><linearGradient id="linear-gradient-26" x1="683.14" y1="386.14" x2="727.58" y2="341.7" xlink:href="#linear-gradient-20"/><linearGradient id="linear-gradient-27" x1="750.31" y1="338.14" x2="744.34" y2="383.31" gradientTransform="translate(-170.62 -237.27) rotate(4.8)" gradientUnits="userSpaceOnUse"><stop offset="0" stop-color="#052133"/><stop offset="1" stop-color="#033551"/></linearGradient><linearGradient id="linear-gradient-28" x1="932.41" y1="689.05" x2="946.61" y2="743.33" gradientTransform="translate(-462.4 -653.53) rotate(13.46)" xlink:href="#linear-gradient-18"/><linearGradient id="linear-gradient-29" x1="1499.7" y1="702.36" x2="1455.13" y2="637.81" gradientTransform="translate(-817.33 -881.58) rotate(22.19)" xlink:href="#linear-gradient-16"/><linearGradient id="linear-gradient-30" x1="762.48" y1="339.82" x2="702.91" y2="387.13" xlink:href="#linear-gradient-22"/><linearGradient id="linear-gradient-31" x1="759.98" y1="342.34" x2="689.31" y2="392.56" gradientTransform="translate(-170.62 -237.27) rotate(4.8)" gradientUnits="userSpaceOnUse"><stop offset="0" stop-color="#2ac0f0"/><stop offset="1" stop-color="#1890be"/></linearGradient><linearGradient id="linear-gradient-32" x1="764.33" y1="329.74" x2="763.81" y2="371.8" xlink:href="#linear-gradient-27"/><linearGradient id="linear-gradient-33" x1="-1592.3" y1="-763.38" x2="-1591.58" y2="-764.09" gradientTransform="matrix(65.36, 9.17, 1.81, -12.87, 106001.37, 4938.77)" gradientUnits="userSpaceOnUse"><stop offset="0" stop-color="#2489ba"/><stop offset="1" stop-color="#15475e"/></linearGradient><linearGradient id="linear-gradient-34" x1="-1598.17" y1="-559.05" x2="-1598.15" y2="-559.06" gradientTransform="matrix(95.07, 13.34, 3.61, -25.75, 154536.49, 7097.84)" gradientUnits="userSpaceOnUse"><stop offset="0" stop-color="#2584b3"/><stop offset="1" stop-color="#236179"/></linearGradient><linearGradient id="linear-gradient-35" x1="784.25" y1="364.81" x2="823.78" y2="325.28" xlink:href="#linear-gradient-19"/><linearGradient id="linear-gradient-36" x1="920.99" y1="856.14" x2="1441.39" y2="335.74" gradientTransform="translate(-732.28 -785.66) rotate(19.45)" xlink:href="#linear-gradient-5"/><linearGradient id="linear-gradient-37" x1="-1540.69" y1="-561.46" x2="-1540.27" y2="-561.88" gradientTransform="matrix(32.06, 11.32, 8.66, -24.52, 54477.48, 3835.27)" xlink:href="#linear-gradient-5"/><linearGradient id="linear-gradient-38" x1="911.06" y1="654.74" x2="864.91" y2="627.28" gradientTransform="translate(-462.4 -653.53) rotate(13.46)" xlink:href="#linear-gradient-5"/><linearGradient id="linear-gradient-39" x1="534.67" y1="387.14" x2="645.07" y2="418.81" xlink:href="#linear-gradient-20"/><linearGradient id="linear-gradient-40" x1="-1571.34" y1="-598.77" x2="-1571.08" y2="-599.03" gradientTransform="matrix(15.9, -1.83, -2.28, -19.87, 23683.47, -14666.33)" xlink:href="#linear-gradient"/><linearGradient id="linear-gradient-41" x1="-1588.26" y1="-680.68" x2="-1588.03" y2="-680.91" gradientTransform="matrix(27.82, -3.2, -1.71, -14.9, 43083.33, -15120.59)" xlink:href="#linear-gradient-2"/><linearGradient id="linear-gradient-42" x1="-1587.35" y1="-598.73" x2="-1587.1" y2="-598.99" gradientTransform="matrix(26.82, -3.08, -2.28, -19.87, 41280.89, -16689.3)" xlink:href="#linear-gradient-3"/><linearGradient id="linear-gradient-43" x1="161.08" y1="250.2" x2="193.47" y2="217.81" gradientTransform="translate(-76.83 -155.8) rotate(2.38)" xlink:href="#linear-gradient-4"/><linearGradient id="linear-gradient-44" x1="176.9" y1="257.1" x2="205.38" y2="228.61" gradientTransform="translate(-76.83 -155.8) rotate(2.38)" xlink:href="#linear-gradient-5"/><linearGradient id="linear-gradient-45" x1="-1595.37" y1="-485.74" x2="-1595.13" y2="-485.99" gradientTransform="matrix(38.74, -4.45, -4.23, -36.76, 59835.9, -24856.19)" xlink:href="#linear-gradient-6"/><linearGradient id="linear-gradient-46" x1="-1596.14" y1="-448.65" x2="-1595.9" y2="-448.89" gradientTransform="matrix(75.93, 3.16, 2.2, -52.95, 122270.89, -18617.21)" xlink:href="#linear-gradient-7"/><linearGradient id="linear-gradient-47" x1="-1600.06" y1="-512.16" x2="-1599.81" y2="-512.41" gradientTransform="matrix(58.61, -6.74, -3.54, -30.8, 92028.13, -26455.32)" xlink:href="#linear-gradient-8"/><linearGradient id="linear-gradient-48" x1="-419.95" y1="109.68" x2="-463.83" y2="133.69" gradientTransform="matrix(0.99, -0.11, 0.11, 0.99, 471.91, -55.94)" xlink:href="#linear-gradient-9"/><linearGradient id="linear-gradient-49" x1="-142.52" y1="176.19" x2="-176.67" y2="245.36" gradientTransform="translate(172.24 -88.5) rotate(-0.57)" xlink:href="#linear-gradient-10"/><linearGradient id="linear-gradient-50" x1="149.91" y1="258.57" x2="177.5" y2="283.95" gradientTransform="translate(-76.83 -155.8) rotate(2.38)" xlink:href="#linear-gradient-11"/><linearGradient id="linear-gradient-51" x1="646.46" y1="352.73" x2="659.73" y2="339.46" gradientTransform="translate(-447.69 -274.04) rotate(8.81)" xlink:href="#linear-gradient-4"/><linearGradient id="linear-gradient-52" x1="-1595.19" y1="-449.47" x2="-1595.02" y2="-449.64" gradientTransform="matrix(93.88, 14.54, 8.11, -52.38, 153490.81, -243.48)" xlink:href="#linear-gradient-13"/><linearGradient id="linear-gradient-53" x1="-1586.9" y1="-450.48" x2="-1586.7" y2="-450.68" gradientTransform="matrix(45.96, 1.91, 2.16, -51.96, 74009.4, -20270.7)" xlink:href="#linear-gradient-4"/><linearGradient id="linear-gradient-54" x1="585.59" y1="324.53" x2="622.4" y2="287.72" gradientTransform="translate(-447.69 -274.04) rotate(8.81)" xlink:href="#linear-gradient-15"/><linearGradient id="linear-gradient-55" x1="208.12" y1="256.29" x2="179.26" y2="269.31" gradientTransform="translate(-76.83 -155.8) rotate(2.38)" xlink:href="#linear-gradient-16"/><linearGradient id="linear-gradient-56" x1="624.96" y1="335.51" x2="640.83" y2="317.26" gradientTransform="translate(-447.69 -274.04) rotate(8.81)" xlink:href="#linear-gradient-4"/><linearGradient id="linear-gradient-57" x1="958.23" y1="319.75" x2="976.95" y2="301.02" gradientTransform="translate(-727.09 -429.84) rotate(14.96)" xlink:href="#linear-gradient-18"/><linearGradient id="linear-gradient-58" x1="966.99" y1="326.32" x2="1015.66" y2="277.65" gradientTransform="translate(-727.09 -429.84) rotate(14.96)" xlink:href="#linear-gradient-19"/><linearGradient id="linear-gradient-59" x1="1237.55" y1="243.35" x2="1241.28" y2="267.44" gradientTransform="translate(-915.71 -554.84) rotate(18.92)" xlink:href="#linear-gradient-20"/><linearGradient id="linear-gradient-60" x1="1225.68" y1="318.6" x2="1293.52" y2="250.75" gradientTransform="translate(-915.71 -554.84) rotate(18.92)" xlink:href="#linear-gradient-21"/><linearGradient id="linear-gradient-61" x1="2174.48" y1="192.85" x2="2220.56" y2="146.76" gradientTransform="translate(-1551.53 -1210.07) rotate(32.87)" xlink:href="#linear-gradient-22"/><linearGradient id="linear-gradient-62" x1="1225.38" y1="256.03" x2="1289.37" y2="265.24" gradientTransform="translate(-915.71 -554.84) rotate(18.92)" xlink:href="#linear-gradient-20"/><linearGradient id="linear-gradient-63" x1="1250.61" y1="280.18" x2="1324.03" y2="206.76" gradientTransform="translate(-915.71 -554.84) rotate(18.92)" xlink:href="#linear-gradient-20"/><linearGradient id="linear-gradient-64" x1="2920.7" y1="-104.74" x2="2901.52" y2="-126.83" gradientTransform="matrix(0.71, 0.71, -0.71, 0.71, -1909.7, -1852)" xlink:href="#linear-gradient-16"/><linearGradient id="linear-gradient-65" x1="2200.71" y1="154" x2="2227.11" y2="127.61" gradientTransform="translate(-1551.53 -1210.07) rotate(32.87)" xlink:href="#linear-gradient-20"/><linearGradient id="linear-gradient-66" x1="2933.85" y1="-139.31" x2="2930.25" y2="-112.02" gradientTransform="matrix(0.71, 0.71, -0.71, 0.71, -1909.7, -1852)" xlink:href="#linear-gradient-27"/><linearGradient id="linear-gradient-67" x1="1037.35" y1="304.02" x2="1043.5" y2="327.52" gradientTransform="translate(-825.02 -454.71) rotate(16.18)" xlink:href="#linear-gradient-18"/><linearGradient id="linear-gradient-68" x1="1520.22" y1="266.33" x2="1492.75" y2="226.55" gradientTransform="translate(-1168.34 -699.43) rotate(24.9)" xlink:href="#linear-gradient-16"/><linearGradient id="linear-gradient-69" x1="2941.51" y1="-140.09" x2="2903.06" y2="-109.56" gradientTransform="matrix(0.71, 0.71, -0.71, 0.71, -1909.7, -1852)" xlink:href="#linear-gradient-22"/><linearGradient id="linear-gradient-70" x1="2940.77" y1="-137.1" x2="2894.52" y2="-104.24" gradientTransform="matrix(0.71, 0.71, -0.71, 0.71, -1909.7, -1852)" xlink:href="#linear-gradient-31"/><linearGradient id="linear-gradient-71" x1="2944.3" y1="-142.42" x2="2944" y2="-118.63" gradientTransform="matrix(0.71, 0.71, -0.71, 0.71, -1909.7, -1852)" xlink:href="#linear-gradient-27"/><linearGradient id="linear-gradient-72" x1="-1559.52" y1="-717.66" x2="-1559.27" y2="-717.92" gradientTransform="matrix(44.03, 49.17, 9.68, -8.67, 75885.49, 70586.04)" xlink:href="#linear-gradient-33"/><linearGradient id="linear-gradient-73" x1="-1576.17" y1="-535.77" x2="-1575.53" y2="-536.41" gradientTransform="matrix(64.04, 71.52, 19.37, -17.34, 111582.02, 103541.26)" xlink:href="#linear-gradient-34"/><linearGradient id="linear-gradient-74" x1="2959.86" y1="-119.15" x2="2984.84" y2="-144.13" gradientTransform="matrix(0.71, 0.71, -0.71, 0.71, -1909.7, -1852)" xlink:href="#linear-gradient-19"/><linearGradient id="linear-gradient-75" x1="-356.11" y1="394.41" x2="33.22" y2="5.07" gradientTransform="translate(172.24 -88.5) rotate(-0.57)" xlink:href="#linear-gradient-5"/><linearGradient id="linear-gradient-76" x1="-1580.45" y1="-546.42" x2="-1580.2" y2="-546.67" gradientTransform="matrix(34, -0.34, -0.26, -26, 53628.85, -14644.21)" xlink:href="#linear-gradient-5"/><linearGradient id="linear-gradient-77" x1="-414.32" y1="111.52" x2="-442.93" y2="94.5" gradientTransform="matrix(0.99, -0.11, 0.11, 0.99, 471.91, -55.94)" xlink:href="#linear-gradient-5"/><linearGradient id="linear-gradient-78" x1="941.53" y1="274.2" x2="1015.11" y2="295.31" gradientTransform="translate(-727.09 -429.84) rotate(14.96)" xlink:href="#linear-gradient-20"/></defs><g id="Layer_2" data-name="Layer 2"><g id="Layer_1-2" data-name="Layer 1"><ellipse class="cls-2" cx="313.28" cy="169" rx="281.5" ry="168"/><g class="cls-3"><ellipse class="cls-4" cx="313.28" cy="168" rx="281.5" ry="168"/></g><path class="cls-5" d="M42.55,130.37c21.21,3,44.37.5,65-5a88.24,88.24,0,0,0,13.13-4.55c6.82-3,13-6.18,19.43-.62,4.05,3.51,6.84,8.26,10.43,12.2a32.23,32.23,0,0,0,11.53,8.16,37.71,37.71,0,0,0,29.53-.35,32.27,32.27,0,0,0,10.84-7.73c3-3.29,5-6.83,10-4.25,3.59,1.85,6.42,5.12,9.45,7.73A133.66,133.66,0,0,0,255.42,157c10,4.35,23.55,10.89,33.57,3.44,2.57-1.9,4.6-4.36,7-6.45a19.75,19.75,0,0,1,11.9-4.68c7.08-.55,14.14.91,21.22.91A64,64,0,0,0,369,135.91a3,3,0,0,0,0-4.21l-5.17-4.83-1.31,5c28.08-7.6,56.36,9.59,84.52,2.18,7.64-2,14.33-5.92,22.42-6s16,1.51,24.11.31,16-3.77,24.41-3.84a95.76,95.76,0,0,1,22.84,3c16.63,3.93,32.77,9.86,50,10.68,3.83.18,3.82-5.77,0-5.95-15.77-.76-30.68-6.06-45.87-9.85s-29.34-4.82-44.6-1.44c-8.66,1.91-16.51,1.9-25.3,1.32a50.47,50.47,0,0,0-22.46,3.64c-14.59,5.53-29,4.18-44.09,1.66-15.76-2.64-31.78-5.72-47.54-1.45a3,3,0,0,0-1.32,5l5.17,4.83V131.7a57.86,57.86,0,0,1-39,12.52c-11.23-.54-23.49-3.09-33,4.65-5.82,4.74-9.22,10.34-17.74,8.73-6.79-1.27-13.6-4.2-19.82-7.1a135,135,0,0,1-33.07-22.18c-3.51-3.13-7.56-6.76-12.5-7.13-6.6-.5-9.11,5-13.33,8.86-7.7,7.07-19.36,9-29.23,6-11.51-3.46-15.23-13.87-23.86-21-9.46-7.77-18.27-2.29-28,1.47-11.16,4.31-23.3,6.37-35.14,7.67s-24.19,2-36.05.35c-3.75-.53-5.37,5.21-1.58,5.74Z" transform="translate(-3.06 1)"/><path class="cls-5" d="M52.55,118.37a122,122,0,0,0,67.66-9.77c6.76-3.09,12.28-3.92,17.82,1.45,3.86,3.74,6.64,8.44,10.39,12.29a34.7,34.7,0,0,0,23.76,10,36.06,36.06,0,0,0,25.46-9.1c1.74-1.6,3-3.68,4.67-5.27,3.84-3.57,7.68-.79,11,2,4.71,3.94,9.16,8.1,14.13,11.73A132.81,132.81,0,0,0,261,149.46c5.06,1.81,10.46,3.77,15.92,3.42s9.19-3.21,12.88-6.79c6.06-5.85,11.36-8.05,19.9-7.82,6.57.18,13.08,1.26,19.66.91A64.21,64.21,0,0,0,366,124.91a3,3,0,0,0,0-4.21l-5.17-4.83-1.31,5c28.08-7.6,56.36,9.59,84.52,2.18,7.64-2,14.33-5.92,22.42-6s16,1.51,24.11.31,16-3.77,24.41-3.84a95.76,95.76,0,0,1,22.84,3c16.63,3.93,32.77,9.86,50,10.68,3.83.18,3.82-5.77,0-6-15.77-.76-30.68-6.06-45.87-9.85s-29.34-4.82-44.6-1.44c-8.66,1.91-16.51,1.9-25.3,1.32a50.47,50.47,0,0,0-22.46,3.64c-14.59,5.53-29,4.18-44.09,1.66-15.76-2.64-31.78-5.72-47.54-1.45a3,3,0,0,0-1.32,5l5.17,4.83V120.7a57.45,57.45,0,0,1-35.72,12.61c-10.92,0-23-3.49-33.12,2.37-4.3,2.5-7.05,6.82-11.16,9.5-6,3.94-14,.46-20-1.75a127.06,127.06,0,0,1-32.74-17.87c-6.95-5.23-17.1-19-27.21-14.54-4,1.79-6.06,6.11-9.38,8.87a29.26,29.26,0,0,1-14.33,6.18c-9.74,1.47-19.74-1.56-26.41-8.9-5.86-6.46-10.6-15.73-20.1-17.11-6.32-.92-11.81,2.31-17.38,4.78a99.62,99.62,0,0,1-18.71,6,117.74,117.74,0,0,1-41.42,1.83c-3.75-.52-5.37,5.21-1.58,5.74Z" transform="translate(-3.06 1)"/><polygon id="triangle36" class="cls-6" points="275.72 196.27 277.93 203.05 270.88 204.04 275.72 196.27"/><polygon id="triangle36-2" data-name="triangle36" class="cls-7" points="264.76 192.31 275.72 196.27 263.64 198.74 264.76 192.31"/><polygon id="triangle36-3" data-name="triangle36" class="cls-8" points="270.88 204.04 275.72 196.27 263.64 198.74 270.88 204.04"/><polygon class="cls-9" points="264.07 168.49 275.72 196.27 277.93 203.05 307.5 214.59 322.58 185.26 264.07 168.49"/><polygon class="cls-10" points="322.58 185.26 307.5 214.59 325.4 221.55 344.61 186.73 322.58 185.26"/><polygon id="triangle36-4" data-name="triangle36" class="cls-11" points="270.88 204.04 277.93 203.05 283.44 220.88 270.88 204.04"/><polygon id="triangle36-5" data-name="triangle36" class="cls-12" points="277.93 203.05 307.5 214.59 283.44 220.88 277.93 203.05"/><polygon id="triangle36-6" data-name="triangle36" class="cls-13" points="264.76 192.31 263.64 198.74 243.54 179.64 264.76 192.31"/><polygon class="cls-14" points="243.54 179.64 224.2 169.49 206.21 201.81 238.87 224.05 263.64 198.74 243.54 179.64"/><polygon class="cls-15" points="195.86 159.03 175.39 153.64 164.2 157.97 173.84 181.63 206.21 201.81 224.2 169.49 195.86 159.03"/><polygon class="cls-16" points="283.44 220.88 270.88 204.04 263.64 198.74 238.87 224.05 264.41 239.98 281.81 249.05 304.14 257.07 283.44 220.88"/><polygon class="cls-17" points="383.87 322.13 374.73 305.21 369.17 324.86 376.71 328.9 383.46 329.17 383.87 322.13"/><polygon id="triangle36-7" data-name="triangle36" class="cls-18" points="283.44 220.88 307.5 214.59 321.77 229.61 283.44 220.88"/><polygon id="triangle36-8" data-name="triangle36" class="cls-19" points="307.5 214.59 325.4 221.55 321.77 229.61 307.5 214.59"/><polygon class="cls-20" points="321.77 229.61 283.44 220.88 304.14 257.07 315.9 270.15 327.49 243.03 321.77 229.61"/><polygon id="triangle36-9" data-name="triangle36" class="cls-21" points="325.4 221.55 327.49 243.03 321.77 229.61 325.4 221.55"/><polygon class="cls-22" points="361.77 281.13 355.84 272.13 351.62 264.87 327.49 243.03 315.9 270.15 330.47 289.26 343.34 301.27 357.21 314.41 369.17 324.86 374.73 305.21 361.77 281.13"/><polygon class="cls-23" points="363.04 229.93 325.4 221.55 327.49 243.03 351.62 264.87 355.84 272.13 374.41 274.89 363.04 229.93"/><polygon class="cls-24" points="363.04 229.93 374.41 274.89 416.86 270.99 433.84 231.91 363.04 229.93"/><polygon id="triangle36-10" data-name="triangle36" class="cls-25" points="398.79 189.55 432.87 189.14 433.63 180.06 398.79 189.55"/><polygon class="cls-26" points="433.84 231.91 416.86 270.99 444.45 263.73 465.46 255.91 485.8 211.45 433.84 231.91"/><polygon class="cls-27" points="507.86 191.08 485.8 211.45 465.46 255.91 487.42 241.64 506.04 227.52 507.86 191.08"/><polygon class="cls-28" points="432.87 189.14 398.79 189.55 433.84 231.91 447.97 202.17 452.39 189.04 432.87 189.14"/><polygon class="cls-29" points="479.32 184.77 452.39 189.04 447.97 202.17 433.84 231.91 485.8 211.45 479.32 184.77"/><polygon class="cls-30" points="507.86 191.08 506.04 227.52 521.16 205.71 531.57 192.96 507.86 191.08"/><polygon class="cls-31" points="511.97 171.83 479.32 184.77 485.8 211.45 507.86 191.08 529.65 179.53 511.97 171.83"/><polygon class="cls-32" points="546.82 173.22 539.24 188.8 537.23 194.86 537.7 201.57 545.32 198.62 546.82 173.22"/><polygon class="cls-33" points="303.43 277.14 304.14 257.08 304.14 257.08 304.14 257.08 304.14 257.08 304.14 257.08 281.81 249.05 264.41 239.98 275.68 267 279.15 265.62 275.68 267 303.43 277.14"/><polygon class="cls-34" points="310.39 288.46 310.39 288.46 303.43 277.14 275.68 267 281.71 284.02 289.26 286.85 281.71 284.02 296.7 311.13 312.03 324.3 319.18 325 310.39 288.46"/><polygon class="cls-35" points="536.39 176.12 529.65 179.53 507.86 191.08 531.57 192.96 539.24 188.8 546.82 173.22 536.39 176.12"/><polygon class="cls-36" points="534.89 165.82 511.97 171.83 529.65 179.53 536.39 176.12 546.82 173.22 561.57 169.2 602.49 164.09 534.89 165.82"/><polygon class="cls-37" points="575.89 180.45 575.97 167.75 561.57 169.2 561.57 169.2 546.82 173.22 545.32 198.62 564.29 191.12 575.89 180.45 575.89 180.45"/><polygon id="triangle36-11" data-name="triangle36" class="cls-38" points="561.57 169.2 575.97 167.75 589.62 165.76 561.57 169.2"/><polygon id="triangle36-12" data-name="triangle36" class="cls-39" points="561.57 169.2 602.49 164.09 589.62 165.76 561.57 169.2"/><polygon class="cls-40" points="636.78 172.07 623.03 166.59 602.49 164.09 589.62 165.76 589.62 165.76 575.97 167.75 575.89 180.45 585.08 183.52 585.08 183.52 636.78 172.07"/><polygon class="cls-41" points="233.81 160.92 175.39 153.64 195.86 159.03 224.2 169.49 218.96 160.74 233.81 160.92"/><polygon id="triangle36-13" data-name="triangle36" class="cls-42" points="218.96 160.74 224.2 169.49 233.81 160.92 218.96 160.74"/><polygon class="cls-43" points="264.07 168.49 264.07 168.49 233.81 160.92 233.81 160.92 224.2 169.49 243.54 179.64 264.76 192.31 275.72 196.27 264.07 168.49"/><polygon class="cls-44" points="398.79 189.55 327.76 185.6 336.13 201.86 325.4 221.55 363.04 229.93 433.84 231.91 398.79 189.55"/><polygon id="triangle36-14" data-name="triangle36" class="cls-45" points="76.32 100.73 79.17 104.08 75.11 106.56 76.32 100.73 76.32 100.73"/><polygon id="triangle36-15" data-name="triangle36" class="cls-46" points="68.77 101.44 76.32 100.73 69.52 105.47 68.77 101.44 68.77 101.44"/><polygon id="triangle36-16" data-name="triangle36" class="cls-47" points="75.11 106.56 76.32 100.73 69.52 105.47 75.11 106.56 75.11 106.56"/><polygon class="cls-48" points="63.3 84.76 76.32 100.73 79.17 104.08 98.22 103.99 104.96 78.31 63.3 84.76 63.3 84.76"/><polygon class="cls-49" points="104.96 78.31 98.22 103.99 110.16 104.78 119.02 81.33 107.91 78.51 104.96 78.31 104.96 78.31"/><polygon id="triangle36-17" data-name="triangle36" class="cls-50" points="75.11 106.56 79.17 104.08 85.96 112.18 75.11 106.56 75.11 106.56"/><polygon id="triangle36-18" data-name="triangle36" class="cls-51" points="79.17 104.08 98.22 103.99 85.96 112.18 79.17 104.08 79.17 104.08"/><polygon id="triangle36-19" data-name="triangle36" class="cls-52" points="68.77 101.44 69.52 105.47 53.05 100.12 68.77 101.44 68.77 101.44"/><polygon class="cls-53" points="53.05 100.12 39.03 99.96 35.26 123.7 60.07 127 69.52 105.47 53.05 100.12 53.05 100.12"/><polygon class="cls-54" points="19.47 102.6 5.83 105.99 0 112 11.1 122.19 35.26 123.7 39.03 99.96 19.47 102.6 19.47 102.6"/><polygon class="cls-55" points="85.96 112.18 75.11 106.56 69.52 105.47 60.07 127 73.87 128.51 87.02 130.28 96.81 133.13 85.96 112.18 85.96 112.18"/><polygon class="cls-56" points="153.1 167.17 146.34 156.81 143.8 169.7 148.86 171.87 153.21 171.7 153.1 167.17 153.1 167.17"/><polygon id="triangle36-20" data-name="triangle36" class="cls-57" points="85.96 112.18 98.22 103.99 108.23 112.27 85.96 112.18 85.96 112.18"/><polygon id="triangle36-21" data-name="triangle36" class="cls-58" points="98.22 103.99 110.16 104.78 108.23 112.27 98.22 103.99 98.22 103.99"/><polygon class="cls-59" points="108.23 112.27 85.96 112.18 96.81 133.13 106.58 138.54 112.63 120.33 108.23 112.27 108.23 112.27"/><polygon id="triangle36-22" data-name="triangle36" class="cls-60" points="110.16 104.78 112.63 120.33 108.23 112.27 110.16 104.78 110.16 104.78"/><polygon class="cls-61" points="136.73 142.17 129.48 131.81 126.78 130.5 112.63 120.33 106.58 138.54 116.99 149.53 125.91 156.25 135.54 163.72 143.8 169.7 146.34 156.81 136.73 142.17 136.73 142.17"/><polygon class="cls-62" points="134.57 105.38 110.16 104.78 112.63 120.33 126.78 130.5 129.48 131.81 145.95 134.2 134.57 105.38 134.57 105.38"/><polygon class="cls-63" points="134.57 105.38 145.95 134.2 162.32 135.07 179.52 108.92 134.57 105.38 134.57 105.38"/><polygon id="triangle36-23" data-name="triangle36" class="cls-64" points="163.68 81.58 185.17 85.47 187.07 79.98 163.68 81.58 163.68 81.58"/><polygon class="cls-65" points="179.52 108.92 162.32 135.07 180.79 134.12 194.58 133.33 214.28 113.68 179.52 108.92 179.52 108.92"/><polygon class="cls-66" points="233.65 117.58 214.28 113.68 194.58 133.33 206.01 131.84 218.08 130.95 233.65 117.58 233.65 117.58"/><polygon class="cls-67" points="185.17 85.47 163.68 81.58 179.52 108.92 192.3 99.55 197.36 88.96 185.17 85.47 185.17 85.47"/><polygon class="cls-68" points="218.71 96.31 197.36 88.96 192.3 99.55 179.52 108.92 214.28 113.68 218.71 96.31 218.71 96.31"/><polygon class="cls-69" points="233.65 117.58 218.08 130.95 234.11 130.41 244.44 129.45 233.65 117.58 233.65 117.58"/><polygon class="cls-70" points="243.67 107.42 218.71 96.31 214.28 113.68 233.65 117.58 249.04 122.49 243.67 107.42 243.67 107.42"/><polygon class="cls-71" points="259.98 127.78 249.89 131.18 246.42 132.96 243.89 136.22 248.81 138.47 259.98 127.78 259.98 127.78"/><polygon class="cls-72" points="98.67 145.61 96.81 133.13 96.81 133.13 96.81 133.13 96.81 133.13 96.81 133.13 87.02 130.28 73.87 128.51 81.03 139.5 83.31 138.54 81.03 139.5 98.67 145.61 98.67 145.61"/><polygon class="cls-73" points="102.83 152.83 102.83 152.83 98.67 145.61 81.03 139.5 84.41 150.29 89.21 151.98 84.41 150.29 93.28 167.46 102.8 175.81 107.4 176.25 102.83 152.83 102.83 152.83"/><polygon class="cls-74" points="253.72 124.13 249.04 122.49 233.65 117.58 244.44 129.45 249.89 131.18 259.98 127.78 253.72 124.13 253.72 124.13"/><polygon class="cls-75" points="257.76 118.17 243.67 107.42 249.04 122.49 253.72 124.13 259.98 127.78 268.79 133.07 290.68 150.85 257.76 118.17 257.76 118.17"/><polygon class="cls-76" points="271.12 144.97 276.36 139.41 268.79 133.07 268.79 133.07 259.98 127.78 248.81 138.47 261.12 144.11 271.12 144.97 271.12 144.97 271.12 144.97"/><polygon id="triangle36-24" data-name="triangle36" class="cls-77" points="268.79 133.07 276.36 139.41 283.78 145.22 268.79 133.07 268.79 133.07"/><polygon id="triangle36-25" data-name="triangle36" class="cls-78" points="268.79 133.07 290.68 150.85 283.78 145.22 268.79 133.07 268.79 133.07"/><polygon class="cls-79" points="303.94 171.43 299.56 162.17 290.68 150.85 283.78 145.22 283.78 145.22 276.36 139.41 271.12 144.97 274.31 150.78 274.31 150.78 303.94 171.43 303.94 171.43"/><polygon class="cls-80" points="43.09 90.59 5.83 105.99 19.47 102.6 39.03 99.96 33.89 96.54 43.09 90.59 43.09 90.59"/><polygon id="triangle36-26" data-name="triangle36" class="cls-81" points="33.89 96.54 39.03 99.96 43.09 90.59 33.89 96.54 33.89 96.54"/><polygon class="cls-82" points="63.3 84.76 63.3 84.76 43.09 90.59 43.09 90.59 39.03 99.96 53.05 100.12 68.77 101.44 76.32 100.73 63.3 84.76 63.3 84.76"/><polygon class="cls-83" points="163.68 81.58 107.91 78.51 115.31 90.23 110.16 104.78 134.57 105.38 179.52 108.92 163.68 81.58 163.68 81.58"/></g></g></svg>