<svg xmlns="http://www.w3.org/2000/svg" viewBox="0 0 109.22 69.78"><defs><style>.cls-1{fill:#3a3a3a;}</style></defs><g id="Layer_2" data-name="Layer 2"><g id="Layer_1-2" data-name="Layer 1"><path class="cls-1" d="M9.66,22.2a6.72,6.72,0,0,0,4.6-1.83c.15-.15.3-.3.44-.47a10.91,10.91,0,0,1-1.4-2.41,11.25,11.25,0,0,1-.89-4.39c0-.26,0-.51,0-.77A11.26,11.26,0,0,1,13,9.59a6.64,6.64,0,0,0-3.31-.9,6.74,6.74,0,0,0-4.6,11.68,7.58,7.58,0,0,0,.82.68A6.72,6.72,0,0,0,9.66,22.2Z"/><path class="cls-1" d="M13.22,48.22l-.09,0a7.44,7.44,0,0,1-4-6.57V30.25a11.29,11.29,0,0,1,.62-3.69A11.72,11.72,0,0,1,11.05,24H6.78a6.79,6.79,0,0,0-2.63.53A7.1,7.1,0,0,0,2,26a6.77,6.77,0,0,0-2,4.79V40.93a3.27,3.27,0,0,0,2,3,3.17,3.17,0,0,0,1.27.26h.36V58.89a3.25,3.25,0,0,0,1.44,2.7,3.2,3.2,0,0,0,1.83.57h5.52a3.35,3.35,0,0,0,.84-.13,6.34,6.34,0,0,1,0-.76Z"/><path class="cls-1" d="M19,19a7.55,7.55,0,0,0,4.72,1.66,7.63,7.63,0,0,0,3.31-.77,11.07,11.07,0,0,1,1.67-1.12l.27-.25a11.89,11.89,0,0,1-2.93-9.47,11.76,11.76,0,0,1,.72-2.86A7.55,7.55,0,0,0,19,19Z"/><path class="cls-1" d="M26.86,62.06V49a7.83,7.83,0,0,1-4.47-7.06V29.43a12,12,0,0,1,.66-3.9,11.54,11.54,0,0,1,1.41-2.86H20.53A7.58,7.58,0,0,0,13,29.48a6.51,6.51,0,0,0,0,.77V41.6a3.67,3.67,0,0,0,3.65,3.66H17v16a3.68,3.68,0,0,0,3.66,3.66h6.18a2,2,0,0,0,.24,0,7.65,7.65,0,0,1-.22-1.8Z"/><path class="cls-1" d="M30.75,14.5a8.34,8.34,0,0,0,2.56,2.85,8.09,8.09,0,0,0,1.52.85,8.33,8.33,0,0,0,7.9-.76l.11-.09a6.55,6.55,0,0,0,.53-.39,8,8,0,0,0,.73-.7,13,13,0,0,1-1.58-3.14A12.72,12.72,0,0,1,41.83,9,12.32,12.32,0,0,1,42,7.17a12.88,12.88,0,0,1,1-3.38,8.32,8.32,0,0,0-11.3,1.45,8.54,8.54,0,0,0-.9,1.32,9.9,9.9,0,0,0-.63,1.5,8.46,8.46,0,0,0,0,4.95A9.38,9.38,0,0,0,30.75,14.5Z"/><path class="cls-1" d="M42.79,50.39c-.15-.07-.29-.16-.44-.24A8.12,8.12,0,0,1,38,43V29.43a12.73,12.73,0,0,1,1.12-5.2,12.56,12.56,0,0,1,2-3.16H34.53a8.19,8.19,0,0,0-2.48.38,8.39,8.39,0,0,0-5.88,8V41.94a4,4,0,0,0,4,4h.44V63.1a4,4,0,0,0,1.78,3.34,4.1,4.1,0,0,0,1.44.61,4.28,4.28,0,0,0,.81.08h6.81a3.9,3.9,0,0,0,1.45-.28,8.36,8.36,0,0,1-.13-1.43v-15Z"/><path class="cls-1" d="M96.81,13.1a11.25,11.25,0,0,1-.89,4.39,10.91,10.91,0,0,1-1.4,2.41c.14.16.29.32.45.47a6.64,6.64,0,0,0,2,1.3,6.79,6.79,0,0,0,2.63.53,6.76,6.76,0,1,0,0-13.51,6.79,6.79,0,0,0-2.63.53,5.57,5.57,0,0,0-.68.37,11.26,11.26,0,0,1,.52,2.74C96.79,12.59,96.81,12.84,96.81,13.1Z"/><path class="cls-1" d="M103.8,24.14a6.75,6.75,0,0,0-1.36-.14H98.17a11.72,11.72,0,0,1,1.26,2.56,11.29,11.29,0,0,1,.62,3.69V41.6a7.44,7.44,0,0,1-4,6.57l-.09,0V61.27A6.34,6.34,0,0,1,96,62a3,3,0,0,0,.84.13h5.52a3.28,3.28,0,0,0,3.27-3.27V44.2H106a3.68,3.68,0,0,0,.66-.06,3.17,3.17,0,0,0,1.16-.5,3.27,3.27,0,0,0,1.45-2.71V30.78a6.8,6.8,0,0,0-5.42-6.64Z"/><path class="cls-1" d="M82.16,19.89l.37.17A7.53,7.53,0,0,0,90.19,19a6.66,6.66,0,0,0,.62-.56,7,7,0,0,0,.93-1.11,7.56,7.56,0,0,0,0-8.45,7.09,7.09,0,0,0-.93-1.12,7.49,7.49,0,0,0-5.34-2.21,7.6,7.6,0,0,0-2.94.59l-.1.05a11.76,11.76,0,0,1,.72,2.86,11.85,11.85,0,0,1-1.26,7.05,12.26,12.26,0,0,1-1.67,2.42l.27.25A11.07,11.07,0,0,1,82.16,19.89Z"/><path class="cls-1" d="M96.27,41.6V30.25a6.51,6.51,0,0,0,0-.77,7.6,7.6,0,0,0-7.54-6.81H84.77a11.69,11.69,0,0,1,1.4,2.86,12,12,0,0,1,.66,3.9V41.94A7.83,7.83,0,0,1,82.36,49V63.1a7.65,7.65,0,0,1-.22,1.8l.24,0h6.18a3.63,3.63,0,0,0,3.66-3.65v-16h.4a3.67,3.67,0,0,0,3.65-3.66Z"/><path class="cls-1" d="M67.39,9a12.72,12.72,0,0,1-.69,4.12,13,13,0,0,1-1.58,3.14,7.71,7.71,0,0,0,1.26,1.09A8.32,8.32,0,0,0,77.57,5.24a8.32,8.32,0,0,0-11.3-1.45,12.42,12.42,0,0,1,1,3.38A13.83,13.83,0,0,1,67.39,9Z"/><path class="cls-1" d="M81.86,44.79a4,4,0,0,0,1.19-2.85V29.43A8.51,8.51,0,0,0,82.67,27a8.16,8.16,0,0,0-1.06-2.18A8.27,8.27,0,0,0,80,23a7.79,7.79,0,0,0-.65-.48,8.24,8.24,0,0,0-4.66-1.44H68.14a13,13,0,0,1,2,3.16,12.73,12.73,0,0,1,1.12,5.2V43a8.13,8.13,0,0,1-4.39,7.2l-.44.23v15a7.46,7.46,0,0,1-.14,1.43,3.9,3.9,0,0,0,1.45.28h6.81a4,4,0,0,0,4-4V46H79a4,4,0,0,0,2.25-.69A4.65,4.65,0,0,0,81.86,44.79Z"/><path class="cls-1" d="M49.9,16.66a7.72,7.72,0,0,0,1.21.63,8.86,8.86,0,0,0,3.5.71,9,9,0,0,0,4.71-1.34,10.31,10.31,0,0,0,1-.71A9,9,0,0,0,54.61,0a8.86,8.86,0,0,0-3.5.71,8.75,8.75,0,0,0-2.86,1.93,9,9,0,0,0,0,12.72A8.67,8.67,0,0,0,49.9,16.66Z"/><path class="cls-1" d="M67.48,43V29.43a9.07,9.07,0,0,0-2.66-6.38,9.13,9.13,0,0,0-2.08-1.56,9.28,9.28,0,0,0-1.62-.69,9.15,9.15,0,0,0-2.68-.4H50.78a9.15,9.15,0,0,0-2.68.4,9.28,9.28,0,0,0-1.62.69,9.13,9.13,0,0,0-2.08,1.56,8.95,8.95,0,0,0-2.65,6.38V43a4.37,4.37,0,0,0,4.35,4.36h.47V65.42a4.35,4.35,0,0,0,1.28,3.08,4.52,4.52,0,0,0,1.39.93,4.33,4.33,0,0,0,1.69.35h7.36a4.14,4.14,0,0,0,.87-.09,4.37,4.37,0,0,0,3.48-4.27V47.31h.48A4.37,4.37,0,0,0,67.48,43Z"/></g></g></svg>