<svg width="68" height="68" viewBox="0 0 68 68" fill="none" xmlns="http://www.w3.org/2000/svg">
<path d="M18.7957 41.518C18.7957 45.7274 20.5696 49.8197 23.7909 53.0409C27.8823 57.132 33.932 59.4788 40.3888 59.4788C45.6053 59.4788 53.0649 57.2795 59.4212 51.8077C60.2538 51.0909 61.3418 50.6507 62.5262 50.6507C65.1526 50.6507 67.2814 52.7804 67.2814 55.4062C67.2814 56.7036 66.752 57.8922 65.9093 58.75C65.2223 59.4497 64.4308 60.0653 63.6488 60.668C54.8153 67.471 44.8376 67.9999 41.9902 67.9999C32.2811 67.9999 24.1217 64.9719 18.3935 59.2438C12.3605 53.211 10.2109 45.5257 10.2109 40.3455C10.2109 34.333 12.3772 28.7191 16.1538 24.9428C19.0562 22.0403 22.7243 20.4419 26.4825 20.4419C30.4456 20.4419 34.1095 21.9231 36.7993 24.6132C37.5533 25.367 38.2023 26.1896 38.7419 27.0618C37.3302 26.1599 35.5928 25.6899 33.6309 25.6899C25.4507 25.6899 18.7957 32.7905 18.7957 41.518Z" fill="#02303A"/>
<path d="M26.4822 18.7948C22.2724 18.7948 18.1802 20.5693 14.9587 23.7906C10.8676 27.8816 8.52113 33.9309 8.52113 40.3879C8.52113 45.605 10.7201 53.0642 16.1921 59.4206C16.9089 60.2534 17.3486 61.3408 17.3486 62.5259C17.3486 65.1517 15.2198 67.2808 12.5936 67.2808C11.2963 67.2808 10.108 66.7513 9.24987 65.9084C8.55025 65.2213 7.93457 64.4301 7.33223 63.6479C0.52887 54.8144 0 44.837 0 41.9893C0 32.2808 3.02765 24.1208 8.75578 18.3926C14.7888 12.3593 22.4738 10.21 27.6541 10.21C33.6662 10.21 39.2805 12.376 43.0574 16.1529C45.9595 19.0559 47.558 22.7234 47.558 26.4818C47.558 30.445 46.0764 34.1088 43.3866 36.7983C42.6327 37.5527 41.8105 38.2017 40.9381 38.7412C41.84 37.3296 42.3102 35.5925 42.3102 33.63C42.3102 25.4497 35.2097 18.7948 26.4822 18.7948Z" fill="#02303A"/>
<path d="M49.2047 26.4818C49.2047 22.2719 47.4305 18.1796 44.2092 14.9583C40.1179 10.8673 34.0685 8.5211 27.6113 8.5211C22.3948 8.5211 14.9353 10.7198 8.57893 16.1916C7.7467 16.9084 6.65837 17.3486 5.47392 17.3486C2.84782 17.3486 0.71875 15.2189 0.71875 12.5937C0.71875 11.2956 1.24818 10.1071 2.09083 9.2498C2.7779 8.5503 3.56943 7.934 4.35141 7.3319C13.1848 0.5283 23.1625 0 26.0099 0C35.719 0 43.8787 3.0273 49.6066 8.7555C55.6396 14.7882 57.7892 22.4735 57.7892 27.6538C57.7892 33.6663 55.6232 39.2802 51.8466 43.0565C48.9442 45.959 45.2761 47.5574 41.5177 47.5574C37.5545 47.5574 33.8907 46.0761 31.2005 43.3861C30.4468 42.6323 29.7978 41.8102 29.2583 40.9381C30.6699 41.8399 32.4076 42.3099 34.3692 42.3099C42.5495 42.3099 49.2047 35.2094 49.2047 26.4818Z" fill="#02303A"/>
<path d="M41.5173 49.2048C45.727 49.2048 49.8192 47.4308 53.0408 44.2095C57.1318 40.1185 59.4783 34.0691 59.4783 27.6122C59.4783 22.3945 57.2794 14.9358 51.8073 8.57955C51.0908 7.74675 50.6508 6.65865 50.6508 5.47425C50.6508 2.84785 52.7799 0.71875 55.4058 0.71875C56.7035 0.71875 57.8918 1.24825 58.7496 2.09115C59.4492 2.77825 60.0649 3.56945 60.6675 4.35165C67.4706 13.1851 67.9994 23.1632 67.9994 26.0103C67.9994 35.7193 64.9718 43.8787 59.244 49.6069C53.2107 55.6402 45.5256 57.7895 40.3453 57.7895C34.3332 57.7895 28.719 55.6235 24.942 51.8466C22.0399 48.9442 20.4414 45.2761 20.4414 41.5182C20.4414 37.5545 21.923 33.8912 24.6128 31.2012C25.3668 30.4468 26.1889 29.7985 27.0613 29.2584C26.1594 30.67 25.6892 32.4076 25.6892 34.3695C25.6892 42.5498 32.7897 49.2048 41.5173 49.2048Z" fill="#02303A"/>
</svg>
