<svg xmlns="http://www.w3.org/2000/svg" viewBox="0 0 58.09 58.09"><defs><style>.cls-1{fill:#3a3a3a;}.cls-2{fill:#a0daf4;}</style></defs><g id="Layer_2" data-name="Layer 2"><g id="Layer_1-2" data-name="Layer 1"><path class="cls-1" d="M29,8.32A20.73,20.73,0,1,0,49.77,29,20.74,20.74,0,0,0,29,8.32Z"/><path class="cls-1" d="M29,0A29,29,0,1,0,58.09,29,29.06,29.06,0,0,0,29,0Zm0,53A23.91,23.91,0,1,1,53,29,23.9,23.9,0,0,1,29,53Z"/><polygon class="cls-2" points="29.43 15.45 16.78 22.75 16.78 37.37 20 39.23 20 24.61 29.43 19.17 38.87 24.61 38.87 35.5 29.63 40.83 29.63 44.56 42.09 37.37 42.09 22.75 29.43 15.45"/><path class="cls-2" d="M36,26.23,29.41,22.4l-6.64,3.83V40.82l3.45,2V35.88l3.19,1.84L36,33.89ZM32.59,31.9l-3.18,1.84L26.22,31.9V28.22l3.19-1.84,3.18,1.84Z"/></g></g></svg>