<svg xmlns="http://www.w3.org/2000/svg" viewBox="0 0 98.49 84.79"><defs><style>.cls-1{fill:#3a3a3a;}</style></defs><g id="Layer_2" data-name="Layer 2"><g id="Layer_1-2" data-name="Layer 1"><path class="cls-1" d="M96.93,81.47H93.71v-69A2.52,2.52,0,0,0,91.22,10h-3V7.68a2.52,2.52,0,0,0-2.49-2.49H83.44V1.76a1.77,1.77,0,0,0-3.53,0V5.19H77.63a2.52,2.52,0,0,0-2.49,2.49V10h-3a2.52,2.52,0,0,0-2.49,2.49V25.63h4.77a5.2,5.2,0,0,1,5.19,5.19V81.47H76.9V30.82a2.52,2.52,0,0,0-2.49-2.49H63.93V81.47h-2.7v-58A2.53,2.53,0,0,0,58.74,21h-3V18.58a2.52,2.52,0,0,0-2.49-2.49H51V12.66a1.77,1.77,0,0,0-3.53,0v3.43H45.14a2.53,2.53,0,0,0-2.49,2.49v2.28h-3a2.53,2.53,0,0,0-2.49,2.49v58H34.46v-53H24.08a2.52,2.52,0,0,0-2.49,2.49V81.47h-2.7V30.82a5.21,5.21,0,0,1,5.19-5.19h4.77V12.45A2.52,2.52,0,0,0,26.36,10h-3V7.68a2.52,2.52,0,0,0-2.49-2.49H18.58V1.76a1.77,1.77,0,0,0-3.53,0V5.19H12.77a2.53,2.53,0,0,0-2.5,2.49V10H7.47A2.52,2.52,0,0,0,5,12.45v69H1.66a1.66,1.66,0,0,0,0,3.32H96.83a1.64,1.64,0,0,0,1.66-1.66A1.55,1.55,0,0,0,96.93,81.47ZM79.18,19.82a2.08,2.08,0,1,1-4.15,0V17.23a2.08,2.08,0,1,1,4.15,0ZM19.41,17.23a2.08,2.08,0,1,1,4.15,0v2.59a2.08,2.08,0,1,1-4.15,0ZM14.32,74.72a2.08,2.08,0,1,1-4.15,0V72.13a2.08,2.08,0,1,1,4.15,0Zm0-11a2.08,2.08,0,1,1-4.15,0V61.13a2.08,2.08,0,1,1,4.15,0Zm0-10.9a2.08,2.08,0,1,1-4.15,0V50.23a2.08,2.08,0,1,1,4.15,0Zm0-11a2.08,2.08,0,1,1-4.15,0V39.23a2.08,2.08,0,1,1,4.15,0Zm0-11a2.08,2.08,0,1,1-4.15,0V28.23a2.08,2.08,0,1,1,4.15,0Zm0-11a2.08,2.08,0,1,1-4.15,0V17.23a2.08,2.08,0,1,1,4.15,0Zm16,51.27a2.08,2.08,0,1,1-4.15,0V68.5a2.08,2.08,0,1,1,4.15,0Zm0-11a2.08,2.08,0,0,1-4.15,0v-2.6a2.08,2.08,0,0,1,4.15,0Zm0-10.9a2.08,2.08,0,1,1-4.15,0V46.6a2.08,2.08,0,1,1,4.15,0Zm0-11a2.08,2.08,0,1,1-4.15,0V35.6a2.08,2.08,0,1,1,4.15,0ZM46.81,74.72a2.08,2.08,0,0,1-4.16,0V72.13a2.08,2.08,0,0,1,4.16,0Zm0-11a2.08,2.08,0,0,1-4.16,0V61.13a2.08,2.08,0,0,1,4.16,0Zm0-10.9a2.08,2.08,0,0,1-4.16,0V50.23a2.08,2.08,0,0,1,4.16,0Zm3.94-9.13a.45.45,0,0,1-.42.42H48.26a.45.45,0,0,1-.42-.42V41.82a4.84,4.84,0,0,1-4-4.36.44.44,0,0,1,.41-.41h2.18c.21,0,.31.1.42.31a1.9,1.9,0,0,0,1.86,1.56h1.25a2,2,0,0,0,2-1.56A1.89,1.89,0,0,0,50,35.18H48.88a5,5,0,0,1-5-4.36,4.83,4.83,0,0,1,3.94-5.19V23.77a.45.45,0,0,1,.42-.42h2.07a.45.45,0,0,1,.42.42v1.86a4.86,4.86,0,0,1,4,4.36.45.45,0,0,1-.42.42H52.2c-.21,0-.31-.11-.41-.31a1.92,1.92,0,0,0-1.87-1.56H48.67a2,2,0,0,0-2,1.56,1.89,1.89,0,0,0,1.87,2.18h1.35a4.77,4.77,0,0,1,4.77,5.29,4.84,4.84,0,0,1-3.94,4.25Zm5.29,31a2.08,2.08,0,1,1-4.15,0V72.13a2.08,2.08,0,1,1,4.15,0Zm0-11a2.08,2.08,0,1,1-4.15,0V61.13a2.08,2.08,0,1,1,4.15,0Zm0-10.9a2.08,2.08,0,1,1-4.15,0V50.23a2.08,2.08,0,1,1,4.15,0Zm16.5,18.27a2.08,2.08,0,1,1-4.15,0V68.5a2.08,2.08,0,1,1,4.15,0Zm0-11a2.08,2.08,0,0,1-4.15,0v-2.6a2.08,2.08,0,0,1,4.15,0Zm0-10.9a2.08,2.08,0,1,1-4.15,0V46.6a2.08,2.08,0,1,1,4.15,0Zm0-11a2.08,2.08,0,1,1-4.15,0V35.6a2.08,2.08,0,1,1,4.15,0ZM88.42,74.72a2.08,2.08,0,1,1-4.15,0V72.13a2.08,2.08,0,1,1,4.15,0Zm0-11a2.08,2.08,0,1,1-4.15,0V61.13a2.08,2.08,0,1,1,4.15,0Zm0-10.9a2.08,2.08,0,1,1-4.15,0V50.23a2.08,2.08,0,1,1,4.15,0Zm0-11a2.08,2.08,0,1,1-4.15,0V39.23a2.08,2.08,0,1,1,4.15,0Zm0-11a2.08,2.08,0,1,1-4.15,0V28.23a2.08,2.08,0,1,1,4.15,0Zm0-11a2.08,2.08,0,1,1-4.15,0V17.23a2.08,2.08,0,1,1,4.15,0Z"/></g></g></svg>