<svg xmlns="http://www.w3.org/2000/svg" viewBox="0 0 128.56 70.18"><defs><style>.cls-1{fill:#3a3a3a;}</style></defs><g id="Layer_2" data-name="Layer 2"><g id="Layer_1-2" data-name="Layer 1"><polygon class="cls-1" points="29.82 17.98 30.83 20.21 31.75 20.21 31.75 44.49 33.85 44.49 33.85 20.21 34.78 20.21 35.79 17.98 33.31 17.98 33.31 3.79 33.98 3.79 33.98 2.51 33.18 2.51 33.18 0 32.42 0 32.42 2.51 31.63 2.51 31.63 3.79 32.3 3.79 32.3 17.98 29.82 17.98"/><polygon class="cls-1" points="100.23 30.78 99.65 30.78 99.65 13.33 100.32 13.33 100.32 11.75 99.53 11.75 99.53 8.66 98.77 8.66 98.77 11.75 97.97 11.75 97.97 13.33 98.64 13.33 98.64 30.78 98.07 30.78 98.07 33.52 98.1 33.52 98.1 63.4 100.19 63.4 100.19 33.52 100.23 33.52 100.23 30.78"/><path class="cls-1" d="M0,43.75l13.13,26,112.23.48,3.2-3.68-3.84-5.45s-37.94,1.53-57.79,1S39.25,51.8,39.25,51.8l-3.86-5.64Z"/><path class="cls-1" d="M77.69,45.14H69.08l-.08,0H54.08V31.55H38a1.16,1.16,0,0,0-.41-.09H28.35a1.12,1.12,0,1,0,0,2.23h3.31V44.52l4.64.32,3.86,5.65S48,60.21,67.84,60.74l2.1,0V49h7.75a1.93,1.93,0,1,0,0-3.85ZM42.13,40.79H33.82V34.4h8.31Zm10-.21H44.35V34.4h7.81ZM68.27,56H58.44V50h9.83Z"/><path class="cls-1" d="M107.83,62.06h8.09l-1.66-4.69a3.85,3.85,0,1,0-5,.18Z"/></g></g></svg>