<svg xmlns="http://www.w3.org/2000/svg" viewBox="0 0 208.77 208.77"><defs><style>.cls-1{fill:#a3ffeb;}.cls-2{fill:#053039;}</style></defs><g id="Layer_2" data-name="Layer 2"><g id="Layer_1-2" data-name="Layer 1"><circle class="cls-1" cx="104.39" cy="104.39" r="104.39"/><path class="cls-2" d="M81.59,116.15a26.85,26.85,0,0,0,8.23,19c6.74,6.74,16.7,10.61,27.34,10.61,8.59,0,20.87-3.63,31.34-12.64a7.83,7.83,0,0,1,10.69,11.44,37.6,37.6,0,0,1-3.72,3.16c-14.55,11.2-31,12.07-35.68,12.07-16,0-29.43-5-38.86-14.42-9.94-9.94-13.48-22.59-13.48-31.13,0-9.9,3.57-19.15,9.79-25.37a24.12,24.12,0,0,1,17-7.41,23.79,23.79,0,0,1,17,6.87,22.14,22.14,0,0,1,3.2,4A15.46,15.46,0,0,0,106,90.09C92.55,90.09,81.59,101.78,81.59,116.15Z"/><path class="cls-2" d="M94.25,78.73a26.88,26.88,0,0,0-19,8.23c-6.74,6.73-10.6,16.7-10.6,27.33,0,8.6,3.62,20.88,12.63,31.35a7.83,7.83,0,0,1-11.43,10.69,35.37,35.37,0,0,1-3.16-3.73c-11.21-14.55-12.08-31-12.08-35.67,0-16,5-29.43,14.42-38.86C75,68.13,87.65,64.59,96.18,64.59c9.9,0,19.15,3.57,25.37,9.79a24.12,24.12,0,0,1,7.41,17,23.79,23.79,0,0,1-6.87,17,22.23,22.23,0,0,1-4,3.2,15.41,15.41,0,0,0,2.26-8.42C120.32,89.69,108.63,78.73,94.25,78.73Z"/><path class="cls-2" d="M131.68,91.39a26.85,26.85,0,0,0-8.23-19c-6.74-6.74-16.7-10.6-27.34-10.6-8.59,0-20.88,3.62-31.35,12.63A7.83,7.83,0,0,1,54.08,63a34.1,34.1,0,0,1,3.72-3.16c14.55-11.21,31-12.08,35.67-12.08,16,0,29.43,5,38.87,14.42,9.94,9.94,13.48,22.6,13.48,31.13,0,9.9-3.57,19.15-9.79,25.37a24.12,24.12,0,0,1-17,7.41,23.81,23.81,0,0,1-17-6.87,22.23,22.23,0,0,1-3.2-4,15.52,15.52,0,0,0,8.42,2.26C120.72,117.46,131.68,105.76,131.68,91.39Z"/><path class="cls-2" d="M119,128.81a26.91,26.91,0,0,0,19-8.22c6.73-6.74,10.6-16.7,10.6-27.34,0-8.59-3.62-20.88-12.64-31.35A7.83,7.83,0,0,1,147.4,51.22a35.25,35.25,0,0,1,3.16,3.72c11.2,14.55,12.07,31,12.07,35.67,0,16-5,29.43-14.42,38.87-9.93,9.93-22.59,13.47-31.12,13.47-9.91,0-19.15-3.56-25.37-9.78a24.15,24.15,0,0,1-7.42-17,23.81,23.81,0,0,1,6.87-17,22.64,22.64,0,0,1,4-3.2A15.44,15.44,0,0,0,93,104.38C93,117.85,104.64,128.81,119,128.81Z"/></g></g></svg>