<svg width="586" height="93" viewBox="0 0 586 93" fill="none" xmlns="http://www.w3.org/2000/svg">
<path d="M18.7953 53.5181C18.7953 57.7275 20.5692 61.8198 23.7905 65.041C27.8819 69.1321 33.9316 71.4789 40.3884 71.4789C45.6049 71.4789 53.0645 69.2796 59.4208 63.8078C60.2534 63.091 61.3414 62.6508 62.5258 62.6508C65.1522 62.6508 67.281 64.7805 67.281 67.4063C67.281 68.7037 66.7516 69.8923 65.9089 70.7501C65.2219 71.4498 64.4304 72.0654 63.6484 72.6681C54.8149 79.4711 44.8372 80 41.9898 80C32.2807 80 24.1213 76.972 18.3931 71.2439C12.3601 65.2111 10.2105 57.5258 10.2105 52.3456C10.2105 46.3331 12.3768 40.7192 16.1534 36.9429C19.0558 34.0404 22.7239 32.442 26.4821 32.442C30.4452 32.442 34.1091 33.9232 36.7989 36.6133C37.5529 37.3671 38.2019 38.1897 38.7415 39.0619C37.3298 38.16 35.5924 37.69 33.6305 37.69C25.4503 37.69 18.7953 44.7906 18.7953 53.5181Z" fill="#02303A"/>
<path d="M26.4822 30.7948C22.2724 30.7948 18.1802 32.5693 14.9587 35.7906C10.8676 39.8816 8.5211 45.9309 8.5211 52.3879C8.5211 57.605 10.7201 65.0642 16.1921 71.4206C16.9089 72.2534 17.3486 73.3408 17.3486 74.5259C17.3486 77.1517 15.2198 79.2808 12.5936 79.2808C11.2963 79.2808 10.108 78.7513 9.24984 77.9084C8.55022 77.2213 7.93454 76.4301 7.3322 75.6479C0.528841 66.8144 -2.92305e-05 56.837 -2.92305e-05 53.9893C-2.92305e-05 44.2808 3.02762 36.1208 8.75575 30.3926C14.7888 24.3593 22.4738 22.21 27.6541 22.21C33.6662 22.21 39.2805 24.376 43.0574 28.1529C45.9595 31.0559 47.558 34.7234 47.558 38.4818C47.558 42.445 46.0764 46.1088 43.3866 48.7983C42.6327 49.5527 41.8105 50.2017 40.9381 50.7412C41.84 49.3296 42.3102 47.5925 42.3102 45.63C42.3102 37.4497 35.2097 30.7948 26.4822 30.7948Z" fill="#02303A"/>
<path d="M49.2051 38.4818C49.2051 34.2719 47.4309 30.1796 44.2096 26.9583C40.1183 22.8673 34.0689 20.5211 27.6117 20.5211C22.3952 20.5211 14.9357 22.7198 8.5793 28.1916C7.74707 28.9084 6.65874 29.3486 5.47429 29.3486C2.84819 29.3486 0.719115 27.2189 0.719115 24.5937C0.719115 23.2956 1.24854 22.1071 2.09119 21.2498C2.77826 20.5503 3.5698 19.934 4.35178 19.3319C13.1852 12.5283 23.1629 12 26.0103 12C35.7194 12 43.8791 15.0273 49.607 20.7555C55.64 26.7882 57.7896 34.4735 57.7896 39.6538C57.7896 45.6663 55.6236 51.2802 51.847 55.0565C48.9446 57.959 45.2765 59.5574 41.5181 59.5574C37.5549 59.5574 33.8911 58.0761 31.2009 55.3861C30.4472 54.6323 29.7982 53.8102 29.2587 52.9381C30.6703 53.8399 32.408 54.3099 34.3696 54.3099C42.5499 54.3099 49.2051 47.2094 49.2051 38.4818Z" fill="#02303A"/>
<path d="M41.5181 61.2046C45.7278 61.2046 49.82 59.4307 53.0416 56.2094C57.1326 52.1184 59.4791 46.069 59.4791 39.6121C59.4791 34.3944 57.2802 26.9357 51.8081 20.5794C51.0916 19.7466 50.6516 18.6585 50.6516 17.4741C50.6516 14.8477 52.7807 12.7186 55.4066 12.7186C56.7043 12.7186 57.8926 13.2481 58.7504 14.091C59.45 14.7781 60.0657 15.5693 60.6683 16.3515C67.4714 25.185 68.0002 35.163 68.0002 38.0101C68.0002 47.7192 64.9726 55.8786 59.2448 61.6068C53.2115 67.6401 45.5264 69.7894 40.3461 69.7894C34.334 69.7894 28.7198 67.6234 24.9428 63.8465C22.0407 60.9441 20.4422 57.276 20.4422 53.5181C20.4422 49.5544 21.9238 45.8911 24.6136 43.2011C25.3676 42.4467 26.1897 41.7983 27.0621 41.2582C26.1602 42.6698 25.69 44.4075 25.69 46.3694C25.69 54.5497 32.7905 61.2046 41.5181 61.2046Z" fill="#02303A"/>
<path d="M120.52 19.24C126.6 19.24 131.854 20.3867 136.28 22.68C140.76 24.92 144.174 28.1467 146.52 32.36C148.92 36.5733 150.12 41.5333 150.12 47.24C150.12 52.9467 148.92 57.9067 146.52 62.12C144.174 66.28 140.76 69.48 136.28 71.72C131.854 73.9067 126.6 75 120.52 75H103.16V19.24H120.52ZM120.52 69C127.72 69 133.214 67.1067 137 63.32C140.787 59.48 142.68 54.12 142.68 47.24C142.68 40.3067 140.76 34.8933 136.92 31C133.134 27.1067 127.667 25.16 120.52 25.16H110.44V69H120.52ZM162.683 24.04C161.296 24.04 160.123 23.56 159.163 22.6C158.203 21.64 157.723 20.4667 157.723 19.08C157.723 17.6933 158.203 16.52 159.163 15.56C160.123 14.6 161.296 14.12 162.683 14.12C164.016 14.12 165.136 14.6 166.043 15.56C167.003 16.52 167.483 17.6933 167.483 19.08C167.483 20.4667 167.003 21.64 166.043 22.6C165.136 23.56 164.016 24.04 162.683 24.04ZM166.203 31.16V75H158.923V31.16H166.203ZM175.09 52.92C175.09 48.44 175.997 44.52 177.81 41.16C179.624 37.7467 182.104 35.1067 185.25 33.24C188.45 31.3733 191.997 30.44 195.89 30.44C199.73 30.44 203.064 31.2667 205.89 32.92C208.717 34.5733 210.824 36.6533 212.21 39.16V31.16H219.57V75H212.21V66.84C210.77 69.4 208.61 71.5333 205.73 73.24C202.904 74.8933 199.597 75.72 195.81 75.72C191.917 75.72 188.397 74.76 185.25 72.84C182.104 70.92 179.624 68.2267 177.81 64.76C175.997 61.2933 175.09 57.3467 175.09 52.92ZM212.21 53C212.21 49.6933 211.544 46.8133 210.21 44.36C208.877 41.9067 207.064 40.04 204.77 38.76C202.53 37.4267 200.05 36.76 197.33 36.76C194.61 36.76 192.13 37.4 189.89 38.68C187.65 39.96 185.864 41.8267 184.53 44.28C183.197 46.7333 182.53 49.6133 182.53 52.92C182.53 56.28 183.197 59.2133 184.53 61.72C185.864 64.1733 187.65 66.0667 189.89 67.4C192.13 68.68 194.61 69.32 197.33 69.32C200.05 69.32 202.53 68.68 204.77 67.4C207.064 66.0667 208.877 64.1733 210.21 61.72C211.544 59.2133 212.21 56.3067 212.21 53ZM239.953 37.16V63C239.953 65.1333 240.406 66.6533 241.313 67.56C242.219 68.4133 243.793 68.84 246.033 68.84H251.393V75H244.833C240.779 75 237.739 74.0667 235.713 72.2C233.686 70.3333 232.673 67.2667 232.673 63V37.16H226.993V31.16H232.673V20.12H239.953V31.16H251.393V37.16H239.953ZM278.533 75.72C274.427 75.72 270.693 74.7867 267.333 72.92C264.027 71.0533 261.413 68.4133 259.493 65C257.627 61.5333 256.693 57.5333 256.693 53C256.693 48.52 257.653 44.5733 259.573 41.16C261.547 37.6933 264.213 35.0533 267.573 33.24C270.933 31.3733 274.693 30.44 278.853 30.44C283.013 30.44 286.773 31.3733 290.133 33.24C293.493 35.0533 296.133 37.6667 298.053 41.08C300.027 44.4933 301.013 48.4667 301.013 53C301.013 57.5333 300 61.5333 297.973 65C296 68.4133 293.307 71.0533 289.893 72.92C286.48 74.7867 282.693 75.72 278.533 75.72ZM278.533 69.32C281.147 69.32 283.6 68.7067 285.893 67.48C288.187 66.2533 290.027 64.4133 291.413 61.96C292.853 59.5067 293.573 56.52 293.573 53C293.573 49.48 292.88 46.4933 291.493 44.04C290.107 41.5867 288.293 39.7733 286.053 38.6C283.813 37.3733 281.387 36.76 278.773 36.76C276.107 36.76 273.653 37.3733 271.413 38.6C269.227 39.7733 267.467 41.5867 266.133 44.04C264.8 46.4933 264.133 49.48 264.133 53C264.133 56.5733 264.773 59.5867 266.053 62.04C267.387 64.4933 269.147 66.3333 271.333 67.56C273.52 68.7333 275.92 69.32 278.533 69.32ZM362.505 30.36C365.919 30.36 368.959 31.08 371.625 32.52C374.292 33.9067 376.399 36.0133 377.945 38.84C379.492 41.6667 380.265 45.1067 380.265 49.16V75H373.065V50.2C373.065 45.8267 371.972 42.4933 369.785 40.2C367.652 37.8533 364.745 36.68 361.065 36.68C357.279 36.68 354.265 37.9067 352.025 40.36C349.785 42.76 348.665 46.2533 348.665 50.84V75H341.465V50.2C341.465 45.8267 340.372 42.4933 338.185 40.2C336.052 37.8533 333.145 36.68 329.465 36.68C325.679 36.68 322.665 37.9067 320.425 40.36C318.185 42.76 317.065 46.2533 317.065 50.84V75H309.785V31.16H317.065V37.48C318.505 35.1867 320.425 33.4267 322.825 32.2C325.279 30.9733 327.972 30.36 330.905 30.36C334.585 30.36 337.839 31.1867 340.665 32.84C343.492 34.4933 345.599 36.92 346.985 40.12C348.212 37.0267 350.239 34.6267 353.065 32.92C355.892 31.2133 359.039 30.36 362.505 30.36ZM431.615 19.16C437.482 19.16 442.629 20.3067 447.055 22.6C451.535 24.8933 454.975 28.1733 457.375 32.44C459.829 36.6533 461.055 41.56 461.055 47.16C461.055 52.76 459.829 57.6667 457.375 61.88C454.975 66.04 451.535 69.2667 447.055 71.56C442.629 73.8533 437.482 75 431.615 75H412.095V19.16H431.615ZM431.215 65.48C437.082 65.48 441.615 63.88 444.815 60.68C448.015 57.48 449.615 52.9733 449.615 47.16C449.615 41.3467 448.015 36.8133 444.815 33.56C441.615 30.2533 437.082 28.6 431.215 28.6H423.295V65.48H431.215ZM502.079 64.36H479.839L476.159 75H464.399L484.479 19.08H497.519L517.599 75H505.759L502.079 64.36ZM499.039 55.4L490.959 32.04L482.879 55.4H499.039ZM549.425 75.56C544.198 75.56 539.398 74.3333 535.025 71.88C530.651 69.4267 527.185 66.04 524.625 61.72C522.065 57.3467 520.785 52.4133 520.785 46.92C520.785 41.48 522.065 36.6 524.625 32.28C527.185 27.9067 530.651 24.4933 535.025 22.04C539.398 19.5867 544.198 18.36 549.425 18.36C554.705 18.36 559.505 19.5867 563.825 22.04C568.198 24.4933 571.638 27.9067 574.145 32.28C576.705 36.6 577.985 41.48 577.985 46.92C577.985 52.4133 576.705 57.3467 574.145 61.72C571.638 66.04 568.198 69.4267 563.825 71.88C559.451 74.3333 554.651 75.56 549.425 75.56ZM549.425 65.56C552.785 65.56 555.745 64.8133 558.305 63.32C560.865 61.7733 562.865 59.5867 564.305 56.76C565.745 53.9333 566.465 50.6533 566.465 46.92C566.465 43.1867 565.745 39.9333 564.305 37.16C562.865 34.3333 560.865 32.1733 558.305 30.68C555.745 29.1867 552.785 28.44 549.425 28.44C546.065 28.44 543.078 29.1867 540.465 30.68C537.905 32.1733 535.905 34.3333 534.465 37.16C533.025 39.9333 532.305 43.1867 532.305 46.92C532.305 50.6533 533.025 53.9333 534.465 56.76C535.905 59.5867 537.905 61.7733 540.465 63.32C543.078 64.8133 546.065 65.56 549.425 65.56Z" fill="#02303A"/>
</svg>
